<?xml version="1.0" encoding="UTF-8" standalone="no"?>
<svg
   xmlns:dc="http://purl.org/dc/elements/1.1/"
   xmlns:cc="http://creativecommons.org/ns#"
   xmlns:rdf="http://www.w3.org/1999/02/22-rdf-syntax-ns#"
   xmlns:svg="http://www.w3.org/2000/svg"
   xmlns="http://www.w3.org/2000/svg"
   xmlns:sodipodi="http://sodipodi.sourceforge.net/DTD/sodipodi-0.dtd"
   xmlns:inkscape="http://www.inkscape.org/namespaces/inkscape"
   width="64"
   height="64"
   viewBox="0 0 16.933333 16.933334"
   version="1.1"
   id="svg8"
   inkscape:version="1.0.1 (3bc2e813f5, 2020-09-07)"
   sodipodi:docname="dnd.svg">
  <defs
     id="defs2" />
  <sodipodi:namedview
     id="base"
     pagecolor="#ffffff"
     bordercolor="#666666"
     borderopacity="1.0"
     inkscape:pageopacity="0.0"
     inkscape:pageshadow="2"
     inkscape:zoom="7.9195959"
     inkscape:cx="35.449952"
     inkscape:cy="33.860615"
     inkscape:document-units="mm"
     inkscape:current-layer="layer1"
     inkscape:document-rotation="0"
     showgrid="false"
     units="px"
     inkscape:window-width="1346"
     inkscape:window-height="967"
     inkscape:window-x="104"
     inkscape:window-y="4"
     inkscape:window-maximized="0" />
  <metadata
     id="metadata5">
    <rdf:RDF>
      <cc:Work
         rdf:about="">
        <dc:format>image/svg+xml</dc:format>
        <dc:type
           rdf:resource="http://purl.org/dc/dcmitype/StillImage" />
        <dc:title></dc:title>
      </cc:Work>
    </rdf:RDF>
  </metadata>
  <g
     inkscape:label="Layer 1"
     inkscape:groupmode="layer"
     id="layer1">
    <path
       style="fill:#ff0000;stroke:#ff0000;stroke-width:0.0264583;stroke-linecap:butt;stroke-linejoin:miter;stroke-miterlimit:4;stroke-dasharray:none;stroke-opacity:1"
       d="M 6.7890376,6.8612991 C 6.2777655,6.3214408 5.5539508,6.1277598 5.1353918,5.5620057 l 0.141741,0.779576 C 5.095796,6.2098652 4.8096979,6.1632672 4.4503099,6.1762172 5.7337684,6.964325 4.3029949,7.1940764 3.8124751,7.6172515 4.198117,7.7086405 4.8692577,7.219187 4.6629216,8.5149449 5.0064575,8.2216267 5.2851088,7.9532615 5.8482734,7.8063624 5.6868158,7.7733647 5.4889465,7.7602279 5.4424973,7.6644984 6.0774982,7.1499123 6.74161,7.2541909 6.8362848,7.2628987 l -0.921317,0.283482 c 0.1928185,0.050536 0.4392529,0.066954 0.519717,0.1889882 -0.4250163,0.1474687 -0.4960761,0.3940452 -0.6614583,0.6142114 0.4797113,0.00932 1.5477748,-0.158935 0.8518794,1.0103248 L 6.9544022,9.3181442 C 6.9652351,9.4663553 6.810679,9.5673125 6.6709202,9.6724974 7.0843654,9.6495214 7.4196565,9.530355 7.54499,9.1527796 7.2418672,9.2855293 7.2357399,8.9826856 7.2615077,8.6330623 6.8965802,8.7853782 7.1255653,8.3437815 7.1197667,8.1369685 L 6.6709202,8.0188511 C 7.133026,8.1079606 8.2507631,7.5414388 7.9229663,8.4204508 8.2399642,8.463828 8.6257217,8.4200282 8.7108943,8.9902811 9.1500137,8.8136838 9.2496251,8.3386065 9.245883,7.829863 9.1244444,7.9210361 9.1492483,8.1584517 8.8679066,8.0897216 8.84456,7.9444985 8.7663799,7.8650757 8.6316716,7.8534866 8.7901326,6.4778471 7.2005298,6.2552588 6.9780258,5.065912 6.4932276,6.1990448 7.8221819,6.1480374 8.0883309,7.2392751 7.494192,6.4957675 6.5346119,5.8984363 6.340191,4.9950415 5.8452374,6.3858263 6.616994,6.2101007 6.7890376,6.8612991 Z"
       id="path847"
       sodipodi:nodetypes="cccccccccccccccccccccccccccc" />
    <path
       style="fill:#ff0000;stroke:#ff0000;stroke-width:0.0264583;stroke-linecap:butt;stroke-linejoin:miter;stroke-miterlimit:4;stroke-dasharray:none;stroke-opacity:1"
       d="M 5.0113035,6.1137903 C 5.0046895,5.4266834 5.0125578,5.2579635 5.1467971,5.0458007 5.3436777,5.5477487 5.8136407,6.0609676 6.0720295,6.0887343 6.0211967,5.7724141 5.9782725,5.4652912 6.0803824,5.1282346 5.7128867,3.4912086 8.441267,3.4975418 7.4250822,5.6878302 L 8.3104124,6.5731604 C 10.18663,3.8637299 7.440937,2.0899122 5.7128867,3.4912086 L 5.7713519,3.1070087 C 5.2661513,3.4301854 5.0662594,3.9329556 4.9361346,4.4767651 L 4.8275565,4.0173955 c -0.3484667,0.7355676 -0.3358463,1.43873 0.183747,2.0963948 z"
       id="path849"
       sodipodi:nodetypes="ccccccccccc" />
    <path
       style="fill:#ff0000;stroke:#ff0000;stroke-width:0.0264583;stroke-linecap:butt;stroke-linejoin:miter;stroke-miterlimit:4;stroke-dasharray:none;stroke-opacity:1"
       d="m 7.4504959,8.2314628 c -0.1701611,0.6077181 0.7080463,0.6861418 0.6437407,1.1575519 0.165595,1.3402613 1.5534614,0.9641863 1.6063988,2.1083983 0.052937,1.144213 0.3947866,1.444128 0.7382346,1.671364 -0.103221,-0.340725 -0.334089,-0.656744 0.02362,-1.086681 0.536683,2.046207 2.367667,1.284095 2.763951,0.803199 -0.291785,0.09481 -0.665043,-4.87e-4 -1.098495,-0.236235 2.345938,-0.0016 2.198963,-2.411297 0.141741,-2.598587 1.476228,0.940064 -0.248478,1.660229 -0.626023,1.358353 0.595611,-0.686575 0.265835,-1.074638 -0.09449,-1.4528466 C 11.440144,11.57679 10.17951,10.094127 9.1986358,9.3653911 8.5391956,9.2839405 8.5801839,8.8522405 8.3481893,8.6921213 8.1161947,8.5320021 7.5019897,8.5896681 7.4504959,8.2314628 Z"
       id="path851"
       sodipodi:nodetypes="cczcccccccczc" />
    <path
       style="fill:#ff0000;stroke:#ff0000;stroke-width:0.0264583;stroke-linecap:butt;stroke-linejoin:miter;stroke-miterlimit:4;stroke-dasharray:none;stroke-opacity:1"
       d="M 9.2291507,9.18739 9.9474376,9.7219294 C 10.212923,9.2708589 11.080499,7.1061417 12.553316,7.8677465 13.060061,7.5211478 13.601064,7.5285568 14.140228,7.5169553 14.047691,7.319055 13.131002,6.4992702 11.676338,6.9991208 11.595999,6.8260321 11.843303,6.7184721 12.027129,6.5982165 11.693499,6.5034983 11.185345,7.0116806 10.740894,7.2997988 10.635305,7.1843013 10.779473,7.0293685 10.874529,6.8821903 10.07755,7.3239699 9.9361829,7.8523398 9.7052248,8.3688769 10.350632,7.7334392 11.059722,7.2922348 11.926903,7.3332075 10.087311,7.7729277 9.8583655,8.5181154 9.2291507,9.18739 Z"
       id="path853"
       sodipodi:nodetypes="ccccccccccc" />
    <path
       style="fill:#ff0000;stroke:#ff0000;stroke-width:0.0264583;stroke-linecap:butt;stroke-linejoin:miter;stroke-miterlimit:4;stroke-dasharray:none;stroke-opacity:1"
       d="M 9.3794899,11.116742 8.4858076,10.356695 C 6.5101984,13.408934 4.3860188,10.376498 6.4478772,8.4858074 5.8730567,8.322449 5.7649545,8.5983551 5.5458425,8.7697812 5.4603236,8.5247842 5.5984148,8.2797872 5.7295904,8.0347902 5.2924933,8.1794423 4.8553963,8.5137802 4.4182992,8.8783596 4.5003971,8.4470889 4.6521797,7.9193317 4.4600603,7.8677465 3.644403,8.8071775 3.6055115,9.0724184 3.3742778,9.5381812 L 3.825295,9.2291508 C 3.1698883,11.138 3.805914,11.802378 4.3347777,12.570021 l 0.033409,-0.442666 c 1.9920605,2.550525 4.6407297,0.308847 5.0113032,-1.010613 z"
       id="path855"
       sodipodi:nodetypes="cccccccccccc" />
  </g>
</svg>
