<?xml version="1.0" encoding="UTF-8" standalone="no"?>
<svg
   xmlns:dc="http://purl.org/dc/elements/1.1/"
   xmlns:cc="http://creativecommons.org/ns#"
   xmlns:rdf="http://www.w3.org/1999/02/22-rdf-syntax-ns#"
   xmlns:svg="http://www.w3.org/2000/svg"
   xmlns="http://www.w3.org/2000/svg"
   xmlns:sodipodi="http://sodipodi.sourceforge.net/DTD/sodipodi-0.dtd"
   xmlns:inkscape="http://www.inkscape.org/namespaces/inkscape"
   width="64"
   height="64"
   viewBox="0 0 16.933333 16.933334"
   version="1.1"
   id="svg8"
   inkscape:version="1.0.1 (3bc2e813f5, 2020-09-07)"
   sodipodi:docname="genericd6.svg">
  <defs
     id="defs2" />
  <sodipodi:namedview
     id="base"
     pagecolor="#ffffff"
     bordercolor="#666666"
     borderopacity="1.0"
     inkscape:pageopacity="0.0"
     inkscape:pageshadow="2"
     inkscape:zoom="7.9195959"
     inkscape:cx="24.189448"
     inkscape:cy="25.950276"
     inkscape:document-units="mm"
     inkscape:current-layer="layer1"
     inkscape:document-rotation="0"
     showgrid="false"
     units="px"
     inkscape:window-width="1280"
     inkscape:window-height="961"
     inkscape:window-x="1672"
     inkscape:window-y="-8"
     inkscape:window-maximized="1"
     showguides="false" />
  <metadata
     id="metadata5">
    <rdf:RDF>
      <cc:Work
         rdf:about="">
        <dc:format>image/svg+xml</dc:format>
        <dc:type
           rdf:resource="http://purl.org/dc/dcmitype/StillImage" />
        <dc:title></dc:title>
      </cc:Work>
    </rdf:RDF>
  </metadata>
  <g
     inkscape:label="Layer 1"
     inkscape:groupmode="layer"
     id="layer1">
    <g
       aria-label="6"
       id="text840"
       style="font-size:10.5833px;line-height:1.25;font-family:Arial;-inkscape-font-specification:Arial;fill:#cccccc;fill-opacity:1;stroke:none;stroke-width:0.405363;stroke-miterlimit:4;stroke-dasharray:none;stroke-opacity:1"
       transform="matrix(0.65270677,0,0,0.65270677,1.8759548,6.1206222)">
      <path
         d="m 12.482089,1.3286711 -0.925005,0.072347 Q 11.433061,0.85324941 11.205685,0.60520332 10.828448,0.20729606 10.275512,0.20729606 q -0.4444157,0 -0.7803115,0.24804609 Q 9.0559523,0.77573501 8.8027385,1.3906826 8.5495248,2.0056302 8.5391896,3.1425081 8.8750853,2.630913 9.3608422,2.3828669 9.8465992,2.1348208 10.378865,2.1348208 q 0.930173,0 1.581294,0.6872944 0.656288,0.6821267 0.656288,1.7673284 0,0.7131325 -0.310058,1.32808 -0.304889,0.60978 -0.842323,0.9353405 -0.537433,0.3255605 -1.21956,0.3255605 -1.1627156,0 -1.8965186,-0.8526584 -0.733803,-0.8578261 -0.733803,-2.8215243 0,-2.1962413 0.8113174,-3.1935933 0.7079649,-0.8681613 1.9068542,-0.8681613 0.894,0 1.462438,0.5012598 0.573607,0.50125979 0.687295,1.384924 z M 8.6838831,4.5946112 q 0,0.4805893 0.2015375,0.9198376 0.206705,0.4392482 0.5736065,0.6717914 0.3669015,0.2273756 0.7699769,0.2273756 0.589109,0 1.012854,-0.4754216 0.423746,-0.4754217 0.423746,-1.2919067 0,-0.7854793 -0.418578,-1.2350628 -0.418578,-0.4547512 -1.054196,-0.4547512 -0.6304503,0 -1.0696986,0.4547512 -0.4392483,0.4495835 -0.4392483,1.1833865 z"
         style="fill:#cccccc;fill-opacity:1;stroke:none;stroke-width:0.405363;stroke-miterlimit:4;stroke-dasharray:none;stroke-opacity:1"
         id="path842" />
    </g>
    <rect
       style="fill:none;stroke:#cccccc;stroke-width:0.264583;stroke-linecap:round;stroke-linejoin:round;stroke-miterlimit:4;stroke-dasharray:none;stroke-opacity:1"
       id="rect836"
       width="9.3544331"
       height="9.3544331"
       x="3.7417734"
       y="3.6749561" />
  </g>
</svg>
