<?xml version="1.0" encoding="UTF-8" standalone="no"?>
<!-- Created with Inkscape (http://www.inkscape.org/) -->

<svg
   width="32"
   height="32"
   viewBox="0 0 8.4666665 8.4666669"
   version="1.1"
   id="svg5"
   inkscape:version="1.1 (c68e22c387, 2021-05-23)"
   sodipodi:docname="gear.svg"
   xmlns:inkscape="http://www.inkscape.org/namespaces/inkscape"
   xmlns:sodipodi="http://sodipodi.sourceforge.net/DTD/sodipodi-0.dtd"
   xmlns="http://www.w3.org/2000/svg"
   xmlns:svg="http://www.w3.org/2000/svg">
  <sodipodi:namedview
     id="namedview7"
     pagecolor="#505050"
     bordercolor="#ffffff"
     borderopacity="1"
     inkscape:pageshadow="0"
     inkscape:pageopacity="0"
     inkscape:pagecheckerboard="1"
     inkscape:document-units="mm"
     showgrid="false"
     units="px"
     inkscape:zoom="23.147924"
     inkscape:cx="21.66501"
     inkscape:cy="16.653761"
     inkscape:window-width="1920"
     inkscape:window-height="1001"
     inkscape:window-x="-9"
     inkscape:window-y="-9"
     inkscape:window-maximized="1"
     inkscape:current-layer="g3361"
     inkscape:snap-global="true" />
  <defs
     id="defs2" />
  <g
     inkscape:label="Layer 1"
     inkscape:groupmode="layer"
     id="layer1">
    <g
       id="g3361"
       transform="matrix(1.614161,0,0,1.614161,17.758734,-7.2358485)"
       style="stroke-width:0.619517">
      <path
         id="path948"
         style="fill:#ffffff;stroke:#000000;stroke-width:0.0819569;stroke-linecap:round;stroke-linejoin:round"
         d="m -8.5092095,4.8368098 c -0.1019967,0 -0.1840829,0.082086 -0.1840829,0.1840829 v 0.2490722 a 1.9720994,1.8666985 0 0 0 -0.368486,0.08836 L -9.1811921,5.1515116 c -0.050999,-0.088332 -0.1629814,-0.118229 -0.2513133,-0.06723 l -0.1962484,0.113331 c -0.088332,0.050998 -0.1185492,0.1629815 -0.06755,0.2513132 l 0.1056476,0.1831226 a 1.9720994,1.8666985 0 0 0 -0.2993349,0.2682808 l -0.1632739,-0.094442 c -0.08833,-0.050998 -0.200634,-0.020781 -0.251633,0.06755 l -0.113331,0.1962484 c -0.051,0.088332 -0.02078,0.200635 0.06755,0.2516334 l 0.136702,0.079076 a 1.9720994,1.8666985 0 0 0 -0.123576,0.408504 h -0.143745 c -0.101997,0 -0.184083,0.082086 -0.184083,0.1840829 v 0.2266622 c 0,0.1019967 0.08209,0.1840829 0.184083,0.1840828 h 0.141184 a 1.9720994,1.8666985 0 0 0 0.121014,0.4117055 l -0.131579,0.075874 c -0.08833,0.050998 -0.118549,0.1633015 -0.06755,0.2516333 l 0.113331,0.1962485 c 0.051,0.088332 0.163301,0.1182289 0.251633,0.06723 l 0.1536696,-0.08868 a 1.9720994,1.8666985 0 0 0 0.3028564,0.2737234 l -0.099565,0.1722377 c -0.050998,0.088332 -0.020781,0.2003145 0.06755,0.2513132 l 0.1962484,0.113331 c 0.088332,0.050998 0.2003147,0.021101 0.2513133,-0.06723 l 0.1117302,-0.1936873 a 1.9720994,1.8666985 0 0 0 0.3761695,0.090921 v 0.2333851 c 0,0.1019967 0.082086,0.1840829 0.1840829,0.1840828 h 0.2266622 c 0.1019967,0 0.1840829,-0.082086 0.1840829,-0.1840828 V 8.9593069 a 1.9720994,1.8666985 0 0 0 0.3771299,-0.08964 l 0.1104497,0.1914462 c 0.050998,0.088332 0.1633015,0.1182288 0.2516333,0.06723 l 0.1962485,-0.113331 c 0.088332,-0.050999 0.1182289,-0.1629817 0.06723,-0.2513132 L -7.1930966,8.595303 A 1.9720994,1.8666985 0 0 0 -6.887679,8.3206191 l 0.148867,0.085799 c 0.088332,0.050998 0.200635,0.021102 0.2516335,-0.06723 l 0.113331,-0.1962485 c 0.050998,-0.088332 0.020782,-0.2006349 -0.067551,-0.2516333 L -6.5668944,7.818633 a 1.9720994,1.8666985 0 0 0 0.1219748,-0.4149069 h 0.1344607 c 0.1019967,0 0.1840829,-0.082086 0.1840829,-0.1840828 V 6.9929811 c -3e-7,-0.1019969 -0.082086,-0.1840829 -0.1840829,-0.1840829 H -6.4471606 A 1.9720994,1.8666985 0 0 0 -6.5720167,6.3965524 L -6.441398,6.3213184 C -6.353066,6.2703204 -6.3228496,6.1580167 -6.373847,6.069685 L -6.4871785,5.8734368 C -6.5381775,5.7851048 -6.65048,5.7548875 -6.738812,5.8058864 l -0.1581511,0.091241 A 1.9720994,1.8666985 0 0 0 -7.1991793,5.6282063 l 0.1034066,-0.1792808 c 0.050998,-0.088332 0.021102,-0.2003148 -0.06723,-0.2513132 l -0.1962485,-0.113331 c -0.088332,-0.050998 -0.2006349,-0.021102 -0.2516333,0.06723 L -7.729018,5.3564039 a 1.9720994,1.8666985 0 0 0 -0.3694464,-0.08804 V 5.0208927 c 0,-0.1019968 -0.082086,-0.1840829 -0.1840829,-0.1840829 z m 0.1450254,1.5578217 A 0.66916829,0.66916829 0 0 1 -7.6950827,7.063733 0.66916829,0.66916829 0 0 1 -8.3641841,7.7328344 0.66916829,0.66916829 0 0 1 -9.0332856,7.063733 0.66916829,0.66916829 0 0 1 -8.3641841,6.3946315 Z" />
    </g>
  </g>
</svg>
