<?xml version="1.0" encoding="UTF-8" standalone="no"?>
<svg
   xmlns:dc="http://purl.org/dc/elements/1.1/"
   xmlns:cc="http://creativecommons.org/ns#"
   xmlns:rdf="http://www.w3.org/1999/02/22-rdf-syntax-ns#"
   xmlns:svg="http://www.w3.org/2000/svg"
   xmlns="http://www.w3.org/2000/svg"
   xmlns:sodipodi="http://sodipodi.sourceforge.net/DTD/sodipodi-0.dtd"
   xmlns:inkscape="http://www.inkscape.org/namespaces/inkscape"
   width="64"
   height="64"
   viewBox="0 0 16.933333 16.933334"
   version="1.1"
   id="svg8"
   inkscape:version="1.0.1 (3bc2e813f5, 2020-09-07)"
   sodipodi:docname="image.www.svg">
  <defs
     id="defs2" />
  <sodipodi:namedview
     id="base"
     pagecolor="#ffffff"
     bordercolor="#666666"
     borderopacity="1.0"
     inkscape:pageopacity="0.0"
     inkscape:pageshadow="2"
     inkscape:zoom="7.3275673"
     inkscape:cx="24.190798"
     inkscape:cy="29.365071"
     inkscape:document-units="mm"
     inkscape:current-layer="layer1"
     inkscape:document-rotation="0"
     showgrid="false"
     units="px"
     inkscape:window-width="1680"
     inkscape:window-height="987"
     inkscape:window-x="-8"
     inkscape:window-y="-8"
     inkscape:window-maximized="1" />
  <metadata
     id="metadata5">
    <rdf:RDF>
      <cc:Work
         rdf:about="">
        <dc:format>image/svg+xml</dc:format>
        <dc:type
           rdf:resource="http://purl.org/dc/dcmitype/StillImage" />
        <dc:title></dc:title>
      </cc:Work>
    </rdf:RDF>
  </metadata>
  <g
     inkscape:label="Layer 1"
     inkscape:groupmode="layer"
     id="layer1">
    <circle
       style="fill:none;stroke:#ffffff;stroke-width:0.264583;stroke-linecap:round;stroke-linejoin:round"
       id="path832"
       cx="8.4131489"
       cy="8.3770409"
       r="7.69099" />
    <rect
       style="fill:#ffffff;stroke:#ffffff;stroke-width:0.264583;stroke-linecap:round;stroke-linejoin:round"
       id="rect834"
       width="11.301784"
       height="5.0551114"
       x="2.6358793"
       y="5.9217019"
       ry="1.5165334" />
    <g
       aria-label="WWW"
       id="text838"
       style="font-size:3.53686px;line-height:1.25;font-family:Arial;-inkscape-font-specification:Arial;fill:#000000;stroke:none;stroke-width:0.264583">
      <path
         d="M 4.0868091,9.7602682 3.4150129,7.228512 H 3.7586824 L 4.1437995,8.8881421 Q 4.2059708,9.1489164 4.2508724,9.4062368 4.3475834,9.0003959 4.3648532,8.9382246 L 4.8466813,7.228512 H 5.2507952 L 5.6134615,8.5099329 Q 5.7498931,8.9865801 5.8103375,9.4062368 5.858693,9.1661863 5.9364072,8.8553294 L 6.3336132,7.228512 H 6.6703747 L 5.9761278,9.7602682 H 5.6531821 L 5.1195445,7.8312289 q -0.067352,-0.2417776 -0.079441,-0.297041 -0.039721,0.1744252 -0.07426,0.297041 L 4.4287516,9.7602682 Z"
         style="fill:#000000;stroke:none;stroke-width:0.264583"
         id="path857" />
      <path
         d="M 7.4250661,9.7602682 6.75327,7.228512 h 0.3436695 l 0.385117,1.6596301 q 0.062171,0.2607743 0.107073,0.5180947 0.096711,-0.4058409 0.1139808,-0.4680122 L 8.1849384,7.228512 H 8.5890523 L 8.9517186,8.5099329 Q 9.0881502,8.9865801 9.1485946,9.4062368 9.1969501,9.1661863 9.2746643,8.8553294 L 9.6718703,7.228512 H 10.008632 L 9.3143849,9.7602682 H 8.9914392 L 8.4578016,7.8312289 q -0.067352,-0.2417776 -0.079441,-0.297041 -0.039721,0.1744252 -0.07426,0.297041 l -0.537092,1.9290393 z"
         style="fill:#000000;stroke:none;stroke-width:0.264583"
         id="path859" />
      <path
         d="M 10.763323,9.7602682 10.091527,7.228512 h 0.34367 l 0.385117,1.6596301 q 0.06217,0.2607743 0.107073,0.5180947 0.09671,-0.4058409 0.11398,-0.4680122 L 11.523195,7.228512 h 0.404114 l 0.362667,1.2814209 q 0.136431,0.4766472 0.196876,0.8963039 0.04835,-0.2400505 0.126069,-0.5509074 L 13.010127,7.228512 h 0.336762 L 12.652642,9.7602682 H 12.329696 L 11.796059,7.8312289 q -0.06735,-0.2417776 -0.07944,-0.297041 -0.03972,0.1744252 -0.07426,0.297041 l -0.537091,1.9290393 z"
         style="fill:#000000;stroke:none;stroke-width:0.264583"
         id="path861" />
    </g>
  </g>
</svg>
