<?xml version="1.0" encoding="UTF-8" standalone="no"?>
<!-- Created with Inkscape (http://www.inkscape.org/) -->

<svg
   width="32"
   height="32"
   viewBox="0 0 8.4666665 8.4666669"
   version="1.1"
   id="svg5"
   inkscape:version="1.1 (c68e22c387, 2021-05-23)"
   sodipodi:docname="info.svg"
   xmlns:inkscape="http://www.inkscape.org/namespaces/inkscape"
   xmlns:sodipodi="http://sodipodi.sourceforge.net/DTD/sodipodi-0.dtd"
   xmlns="http://www.w3.org/2000/svg"
   xmlns:svg="http://www.w3.org/2000/svg">
  <sodipodi:namedview
     id="namedview7"
     pagecolor="#505050"
     bordercolor="#ffffff"
     borderopacity="1"
     inkscape:pageshadow="0"
     inkscape:pageopacity="0"
     inkscape:pagecheckerboard="1"
     inkscape:document-units="mm"
     showgrid="false"
     units="px"
     inkscape:zoom="11.573962"
     inkscape:cx="-5.3136515"
     inkscape:cy="6.2640607"
     inkscape:window-width="1920"
     inkscape:window-height="1001"
     inkscape:window-x="-9"
     inkscape:window-y="-9"
     inkscape:window-maximized="1"
     inkscape:current-layer="layer1"
     inkscape:snap-global="false" />
  <defs
     id="defs2" />
  <g
     inkscape:label="Layer 1"
     inkscape:groupmode="layer"
     id="layer1">
    <g
       aria-label="i"
       id="text7141"
       style="font-style:italic;font-size:10.5833px;line-height:1.25;font-family:Roland;-inkscape-font-specification:'Roland Italic';letter-spacing:0px;word-spacing:0px;stroke:#ffffff;stroke-width:0.264583"
       transform="matrix(0.68542337,0,0,0.82218885,1.2781736,4.8349038)">
      <path
         d="m 1.2822876,3.1775706 0.3492488,-1.7568278 0.7090811,0.03175 0.4339153,-2.16957638 -0.6984978,0.0105833 0.3492489,-1.74624442 q 0.1375829,0 0.2434159,0 0.105833,0 0.1799161,0 0.2434159,0 0.3704155,0 0.211666,0 0.317499,0 0.1904994,0 0.2857491,0 0.1693328,0 0.2434159,0 0.1481662,0 0.2222493,0 0.1269996,0 0.1904993,0 0.105833,0 0.1693328,0 0.09525,0 0.1481662,0 0.084666,0 0.1269996,0 0.1904994,0 0.3809988,0 0.1904994,0 0.4021654,-0.010583 0.074083,0 0.105833,0 L 5.0287756,1.4524927 5.6214404,1.4207428 5.2721915,3.1775706 3.3566143,3.156404 q -0.3492489,0 -1.0477467,0.010583 -0.6879145,0.010583 -1.02658,0.010584 z m 1.9049939,-6.9108947 q 0.074083,-0.4127487 0.529165,-0.7090811 0.4656652,-0.3069156 1.1535796,-0.3069156 0.5926648,0 1.0371634,0.3492488 0.3069157,0.2539992 0.2222493,0.6879145 -0.084666,0.4444986 -0.4974151,0.6773312 -0.5609149,0.3492489 -1.2064961,0.3492489 -0.6773312,0 -1.0054135,-0.3069157 -0.317499,-0.317499 -0.2328326,-0.740831 z"
         id="path8389"
         style="stroke:#ffffff" />
    </g>
  </g>
</svg>
