<?xml version="1.0" encoding="UTF-8" standalone="no"?>
<!-- Created with Inkscape (http://www.inkscape.org/) -->

<svg
   width="32"
   height="32"
   viewBox="0 0 8.4666665 8.4666669"
   version="1.1"
   id="svg5"
   inkscape:version="1.1 (c68e22c387, 2021-05-23)"
   sodipodi:docname="newPoint.svg"
   xmlns:inkscape="http://www.inkscape.org/namespaces/inkscape"
   xmlns:sodipodi="http://sodipodi.sourceforge.net/DTD/sodipodi-0.dtd"
   xmlns="http://www.w3.org/2000/svg"
   xmlns:svg="http://www.w3.org/2000/svg">
  <sodipodi:namedview
     id="namedview7"
     pagecolor="#505050"
     bordercolor="#ffffff"
     borderopacity="1"
     inkscape:pageshadow="0"
     inkscape:pageopacity="0"
     inkscape:pagecheckerboard="1"
     inkscape:document-units="mm"
     showgrid="false"
     units="px"
     inkscape:zoom="11.573962"
     inkscape:cx="-1.339213"
     inkscape:cy="18.100975"
     inkscape:window-width="1920"
     inkscape:window-height="1001"
     inkscape:window-x="-9"
     inkscape:window-y="-9"
     inkscape:window-maximized="1"
     inkscape:current-layer="g3361"
     inkscape:snap-global="false" />
  <defs
     id="defs2" />
  <g
     inkscape:label="Layer 1"
     inkscape:groupmode="layer"
     id="layer1">
    <g
       id="g3361">
      <path
         id="rect2636"
         style="fill:#ffffff;stroke-width:0.273775;stroke-linecap:round;stroke-linejoin:round"
         d="M 6.2008699,0.32009871 C 6.0972458,0.32531871 6.015332,0.41067551 6.015332,0.51564125 V 1.5692964 H 4.9621315 c -0.1083515,0 -0.1959971,0.087191 -0.1959971,0.1955424 v 0.630738 c 0,0.1083517 0.087646,0.1955424 0.1959971,0.1955424 H 6.015332 v 1.0536553 c 0,0.1083516 0.087646,0.1955423 0.1959971,0.1955423 h 0.6307382 c 0.1083516,0 0.1955422,-0.087191 0.1955422,-0.1955423 V 2.5911192 h 1.0536554 c 0.1083515,0 0.1955424,-0.087191 0.1955424,-0.1955424 v -0.630738 c 0,-0.1083515 -0.087191,-0.1955424 -0.1955424,-0.1955424 H 7.0376095 V 0.51564125 c 0,-0.10835189 -0.087191,-0.19554254 -0.1955422,-0.19554254 H 6.2113291 c -0.00339,0 -0.00712,-1.6825e-4 -0.010459,0 z" />
      <path
         id="path950"
         style="fill:#ffffff;stroke:#ffffff;stroke-width:0.0769057;stroke-linecap:round;stroke-linejoin:round;stroke-miterlimit:4;stroke-dasharray:none"
         d="m 2.9723617,1.7059705 c -1.006695,-4.6e-6 -1.8227862,0.8858086 -1.8227923,1.9785205 1.433e-4,0.00464 8.332e-4,0.0093 4.852e-4,0.013936 -0.012406,0.1639408 0.055731,0.513886 0.092044,0.6050412 C 1.78854,5.69299 2.6700157,7.0079853 2.9725878,8.1925165 3.2608527,7.0060909 4.6080109,5.2560028 4.7783902,3.9446791 c 0.00456,-0.034848 0.00828,-0.070091 0.010985,-0.105841 3.234e-4,-0.00466 6.469e-4,-0.00933 9.335e-4,-0.013997 0.00308,-0.04477 0.0047,-0.090306 0.00472,-0.1367303 l 1.433e-4,-0.00362 -7.18e-5,-0.00525 c -9.2e-6,-0.00301 7.18e-5,-0.00597 7.18e-5,-0.00899 H 4.7950017 C 4.7877738,2.5831759 3.9738911,1.706037 2.9723617,1.7059705 Z M 2.971753,2.6642507 C 3.5120441,2.6642443 3.9500383,3.139663 3.9500322,3.7261195 3.9500283,4.3125681 3.5120367,4.7879749 2.9717523,4.7879682 2.4314752,4.7879638 1.993495,4.3125604 1.993491,3.7261195 1.9934849,3.1396705 2.4314679,2.6642551 2.971753,2.6642507 Z"
         sodipodi:nodetypes="ccccccccccccccscccss" />
    </g>
  </g>
</svg>
