<?xml version="1.0" encoding="UTF-8" standalone="no"?>
<!-- Created with Inkscape (http://www.inkscape.org/) -->

<svg
   width="32"
   height="32"
   viewBox="0 0 8.4666665 8.4666669"
   version="1.1"
   id="svg5"
   inkscape:version="1.1 (c68e22c387, 2021-05-23)"
   sodipodi:docname="campsite.svg"
   xmlns:inkscape="http://www.inkscape.org/namespaces/inkscape"
   xmlns:sodipodi="http://sodipodi.sourceforge.net/DTD/sodipodi-0.dtd"
   xmlns="http://www.w3.org/2000/svg"
   xmlns:svg="http://www.w3.org/2000/svg">
  <sodipodi:namedview
     id="namedview7"
     pagecolor="#505050"
     bordercolor="#ffffff"
     borderopacity="1"
     inkscape:pageshadow="0"
     inkscape:pageopacity="0"
     inkscape:pagecheckerboard="1"
     inkscape:document-units="mm"
     showgrid="false"
     units="px"
     inkscape:zoom="23.147924"
     inkscape:cx="16.610561"
     inkscape:cy="16.221757"
     inkscape:window-width="1920"
     inkscape:window-height="1001"
     inkscape:window-x="-9"
     inkscape:window-y="-9"
     inkscape:window-maximized="1"
     inkscape:current-layer="layer1"
     inkscape:snap-global="false" />
  <defs
     id="defs2" />
  <g
     inkscape:label="Layer 1"
     inkscape:groupmode="layer"
     id="layer1">
    <path
       id="rect936"
       style="fill:#000000;stroke:#ffffff;stroke-width:0.411353;stroke-linecap:round;stroke-linejoin:round"
       d="m 2.9786573,0.80663019 c -0.03937,9.5844e-4 -0.075874,0.0110261 -0.1084621,0.032137 C 2.7398395,0.9232134 2.7335973,1.1439006 2.8565447,1.3336768 L 3.8045791,2.7983205 2.7014766,4.7080614 1.2930729,7.1480631 h -0.029727 c -0.063992,0 -0.1156933,0.051701 -0.1156933,0.1156931 v 0.3197632 c 0,0.063992 0.051701,0.1156931 0.1156933,0.1156931 h 5.6866406 c 0.063992,0 0.1156931,-0.051701 0.1156931,-0.1156931 V 7.2637562 c -3e-7,-0.063992 -0.051701,-0.1156931 -0.1156931,-0.1156931 h -0.0016 L 5.5399786,4.7080614 4.4939193,2.8963383 c -0.00647,-0.030872 -0.015874,-0.062637 -0.028923,-0.094 L 5.4106243,1.3425147 C 5.5335643,1.1527383 5.5273216,0.9320511 5.3969673,0.84760486 5.266612,0.76315872 5.0627582,0.84823835 4.9398187,1.0380166 l -0.8026216,1.2396846 -0.016067,-0.027318 -0.0016,0.00243 L 3.3273485,1.0291941 C 3.2351387,0.88684669 3.0967652,0.80374928 2.9786573,0.80663019 Z" />
    <path
       sodipodi:type="star"
       style="fill:#ffffff;stroke:#ffffff;stroke-linecap:round;stroke-linejoin:round"
       id="path1233"
       inkscape:flatsided="false"
       sodipodi:sides="3"
       sodipodi:cx="12.182518"
       sodipodi:cy="21.64341"
       sodipodi:r1="3.724267"
       sodipodi:r2="1.8621335"
       sodipodi:arg1="-1.5707963"
       sodipodi:arg2="-0.52359878"
       inkscape:rounded="0"
       inkscape:randomized="0"
       d="m 12.182518,17.919143 1.612655,2.7932 1.612655,2.7932 -3.22531,0 -3.2253099,0 1.6126549,-2.7932 z"
       transform="matrix(0.41135355,0,0,0.41135355,-0.91348922,-2.5901815)"
       inkscape:transform-center-y="-0.38299776" />
  </g>
</svg>
