<?xml version="1.0" encoding="UTF-8" standalone="no"?>
<!-- Created with Inkscape (http://www.inkscape.org/) -->

<svg
   width="32"
   height="32"
   viewBox="0 0 8.4666665 8.4666669"
   version="1.1"
   id="svg5"
   inkscape:version="1.1 (c68e22c387, 2021-05-23)"
   sodipodi:docname="capital_circle.svg"
   xmlns:inkscape="http://www.inkscape.org/namespaces/inkscape"
   xmlns:sodipodi="http://sodipodi.sourceforge.net/DTD/sodipodi-0.dtd"
   xmlns="http://www.w3.org/2000/svg"
   xmlns:svg="http://www.w3.org/2000/svg">
  <sodipodi:namedview
     id="namedview7"
     pagecolor="#505050"
     bordercolor="#ffffff"
     borderopacity="1"
     inkscape:pageshadow="0"
     inkscape:pageopacity="0"
     inkscape:pagecheckerboard="1"
     inkscape:document-units="mm"
     showgrid="false"
     units="px"
     inkscape:zoom="16.368054"
     inkscape:cx="10.294443"
     inkscape:cy="21.780231"
     inkscape:window-width="1920"
     inkscape:window-height="1001"
     inkscape:window-x="-9"
     inkscape:window-y="-9"
     inkscape:window-maximized="1"
     inkscape:current-layer="layer1" />
  <defs
     id="defs2" />
  <g
     inkscape:label="Layer 1"
     inkscape:groupmode="layer"
     id="layer1">
    <path
       id="path2702"
       style="fill:none;stroke:#ffffff;stroke-width:1.09173;stroke-linecap:round;stroke-linejoin:round;stroke-miterlimit:4;stroke-dasharray:none"
       d="m 15.203125,1.4589844 c -0.13392,0 -0.242187,0.1082672 -0.242187,0.2421875 V 3.2617188 A 12.906195,12.906195 0 0 0 7.5351562,6.3515625 L 6.421875,5.2382812 c -0.094696,-0.094696 -0.2471009,-0.094696 -0.3417969,0 L 5.1171875,6.203125 c -0.094696,0.094696 -0.094696,0.2471009 0,0.3417969 l 1.109375,1.109375 A 12.906195,12.906195 0 0 0 3.0859375,15.083984 H 1.5800781 c -0.1339202,0 -0.2421875,0.108268 -0.2421875,0.242188 V 16.6875 c 0,0.13392 0.1082673,0.242187 0.2421875,0.242188 h 1.4902344 a 12.906195,12.906195 0 0 0 3.0410156,7.544921 L 5.1171875,25.46875 c -0.094696,0.0947 -0.094696,0.247101 0,0.341797 l 0.9628906,0.964844 c 0.094696,0.0947 0.247101,0.0947 0.3417969,0 l 0.9824219,-0.982422 a 12.906195,12.906195 0 0 0 7.5566411,3.205078 V 30.3125 c -1e-6,0.13392 0.108267,0.242187 0.242187,0.242188 h 1.363281 c 0.133921,-10e-7 0.242188,-0.108268 0.242188,-0.242188 v -1.308594 a 12.906195,12.906195 0 0 0 7.591797,-3.175781 l 0.947265,0.947266 c 0.0947,0.0947 0.247101,0.0947 0.341797,0 l 0.962891,-0.964844 c 0.0947,-0.0947 0.0947,-0.247101 0,-0.341797 l -0.949219,-0.949219 a 12.906195,12.906195 0 0 0 3.119141,-7.589843 h 1.367187 c 0.13392,0 0.242188,-0.108268 0.242188,-0.242188 v -1.361328 c 0,-0.13392 -0.108268,-0.242188 -0.242188,-0.242188 h -1.380859 a 12.906195,12.906195 0 0 0 -3.19336,-7.5019528 l 1.03711,-1.0371093 c 0.0947,-0.094696 0.0947,-0.247101 0,-0.3417969 L 25.689453,5.2382812 c -0.0947,-0.094696 -0.247101,-0.094696 -0.341797,0 L 24.294922,6.2910156 A 12.906195,12.906195 0 0 0 16.808594,3.2539062 V 1.7011719 c 0,-0.1339203 -0.108267,-0.2421875 -0.242188,-0.2421875 z"
       transform="scale(0.26458333)" />
    <circle
       style="fill:#000000;stroke:#ffffff;stroke-width:0.206861;stroke-linecap:round;stroke-linejoin:round;stroke-miterlimit:4;stroke-dasharray:none"
       id="path2702-3"
       cx="4.2028003"
       cy="4.2836237"
       r="2.4454715" />
  </g>
</svg>
