<?xml version="1.0" encoding="UTF-8" standalone="no"?>
<!-- Created with Inkscape (http://www.inkscape.org/) -->

<svg
   width="32"
   height="32"
   viewBox="0 0 8.4666665 8.4666669"
   version="1.1"
   id="svg5"
   inkscape:version="1.1 (c68e22c387, 2021-05-23)"
   sodipodi:docname="castle.svg"
   xmlns:inkscape="http://www.inkscape.org/namespaces/inkscape"
   xmlns:sodipodi="http://sodipodi.sourceforge.net/DTD/sodipodi-0.dtd"
   xmlns="http://www.w3.org/2000/svg"
   xmlns:svg="http://www.w3.org/2000/svg">
  <sodipodi:namedview
     id="namedview7"
     pagecolor="#505050"
     bordercolor="#ffffff"
     borderopacity="1"
     inkscape:pageshadow="0"
     inkscape:pageopacity="0"
     inkscape:pagecheckerboard="1"
     inkscape:document-units="mm"
     showgrid="false"
     units="px"
     inkscape:zoom="16.368054"
     inkscape:cx="6.1400091"
     inkscape:cy="17.809081"
     inkscape:window-width="1920"
     inkscape:window-height="1001"
     inkscape:window-x="-9"
     inkscape:window-y="-9"
     inkscape:window-maximized="1"
     inkscape:current-layer="layer1"
     inkscape:snap-global="false" />
  <defs
     id="defs2" />
  <g
     inkscape:label="Layer 1"
     inkscape:groupmode="layer"
     id="layer1">
    <path
       id="rect1547"
       style="display:inline;fill:#000000;stroke:#ffffff;stroke-width:0.357003;stroke-linecap:round;stroke-linejoin:round"
       d="m 3.2091161,1.2274761 c -0.127091,0.0064 -0.2273109,0.1111248 -0.2273109,0.2398617 V 2.3786732 H 2.3591405 V 1.4924395 c 0,-0.1324343 -0.10673,-0.2391646 -0.2391646,-0.2391646 H 1.8884816 c -0.1324343,0 -0.2391646,0.10673 -0.2391646,0.2391646 V 2.3786732 H 1.564948 c -0.1324343,0 -0.2391646,0.1067301 -0.2391646,0.2391646 v 3.840578 c 0,0.1071507 -0.010538,0.1146115 -0.023011,0.1157475 -0.1318889,0.012012 -0.2391647,0.1060324 -0.2391647,0.2384674 v 0.3088917 c 0,0.1324343 0.1067298,0.2391646 0.2391647,0.2391646 h 5.7985198 c 0.1324343,0 0.2391646,-0.1067301 0.2391646,-0.2391646 V 6.8126305 c 0,-0.1324342 -0.1077273,-0.2546895 -0.2391646,-0.2384674 -0.051838,0.0064 -0.053691,0.00255 -0.053691,-0.1624644 V 3.3890213 c 0,-0.1324343 -0.10673,-0.2391646 -0.2391646,-0.2391646 H 6.5999517 V 2.5871576 c 0,-0.1324343 -0.1060324,-0.2391646 -0.238467,-0.2391646 H 6.2534073 c -0.1324343,0 -0.3096966,0.1074078 -0.2963148,0.2391646 V 3.1498567 H 5.2716472 V 2.5446243 c 0,-0.1331872 -0.1073723,-0.2405591 -0.240559,-0.2405591 H 4.8686237 c -0.1331872,0 -0.240559,0.1073723 -0.240559,0.2405591 V 3.1498567 H 4.0556036 V 2.6178378 c 0,-0.1324343 -0.10673,-0.2391646 -0.2391643,-0.2391646 H 3.6951138 V 1.4673378 c 0,-0.132889 -0.1069729,-0.2398617 -0.2398619,-0.2398617 H 3.2216656 c -0.00416,0 -0.00845,-2.068e-4 -0.012549,0 z M 2.3953988,4.5855415 h 0.8367273 c 0.1220541,0 0.220338,0.098283 0.220338,0.220338 v 1.222319 c 0,0.1220541 -0.098283,0.2203384 -0.220338,0.2203384 H 2.3953988 c -0.1220541,0 -0.2203383,-0.098285 -0.2203383,-0.2203384 v -1.222319 c 0,-0.1220541 0.098285,-0.220338 0.2203383,-0.220338 z"
       sodipodi:nodetypes="csccsssscsssssssssssssscssssccssssccsscssscsssssssss" />
  </g>
</svg>
