<?xml version="1.0" encoding="UTF-8" standalone="no"?>
<!-- Created with Inkscape (http://www.inkscape.org/) -->

<svg
   width="32"
   height="32"
   viewBox="0 0 8.4666665 8.4666669"
   version="1.1"
   id="svg5"
   inkscape:version="1.1 (c68e22c387, 2021-05-23)"
   sodipodi:docname="food.svg"
   xmlns:inkscape="http://www.inkscape.org/namespaces/inkscape"
   xmlns:sodipodi="http://sodipodi.sourceforge.net/DTD/sodipodi-0.dtd"
   xmlns="http://www.w3.org/2000/svg"
   xmlns:svg="http://www.w3.org/2000/svg">
  <sodipodi:namedview
     id="namedview7"
     pagecolor="#505050"
     bordercolor="#ffffff"
     borderopacity="1"
     inkscape:pageshadow="0"
     inkscape:pageopacity="0"
     inkscape:pagecheckerboard="1"
     inkscape:document-units="mm"
     showgrid="false"
     units="px"
     inkscape:zoom="23.147924"
     inkscape:cx="18.856983"
     inkscape:cy="16.221757"
     inkscape:window-width="1920"
     inkscape:window-height="1001"
     inkscape:window-x="-9"
     inkscape:window-y="-9"
     inkscape:window-maximized="1"
     inkscape:current-layer="g3361" />
  <defs
     id="defs2" />
  <g
     inkscape:label="Layer 1"
     inkscape:groupmode="layer"
     id="layer1">
    <g
       id="g3361">
      <path
         id="path1400"
         style="fill:#000000;stroke:#ffffff;stroke-width:0.248;stroke-linecap:round;stroke-linejoin:round"
         d="M 1.617577,0.62881449 C 1.3365735,0.62860847 1.1086436,0.85630701 1.1085642,1.1373106 c 8.96e-5,0.076423 0.017399,0.1518441 0.050643,0.2206583 C 1.0664887,1.2852169 1.0205969,1.3028754 0.90274295,1.3029817 0.61234219,1.3031118 0.37703845,1.5386469 0.37719364,1.8290477 0.37732369,2.1192466 0.61254393,2.3544669 0.90274295,2.3545971 1.029206,2.354491 1.3114156,2.3088081 1.4069296,2.2259227 L 3.2117949,4.423415 C 4.5436277,12.099118 12.220642,4.266135 4.3435088,3.2462258 L 2.0235699,1.6544512 C 2.068224,1.5771559 2.1260398,1.2265773 2.1260731,1.1373106 2.1259937,0.85650884 1.8983788,0.62889387 1.617577,0.62881449 Z"
         sodipodi:nodetypes="cccccccccccc" />
    </g>
  </g>
</svg>
