<?xml version="1.0" encoding="UTF-8" standalone="no"?>
<!-- Created with Inkscape (http://www.inkscape.org/) -->

<svg
   width="32"
   height="32"
   viewBox="0 0 8.4666665 8.4666669"
   version="1.1"
   id="svg5"
   inkscape:version="1.1 (c68e22c387, 2021-05-23)"
   sodipodi:docname="garden.svg"
   xmlns:inkscape="http://www.inkscape.org/namespaces/inkscape"
   xmlns:sodipodi="http://sodipodi.sourceforge.net/DTD/sodipodi-0.dtd"
   xmlns="http://www.w3.org/2000/svg"
   xmlns:svg="http://www.w3.org/2000/svg">
  <sodipodi:namedview
     id="namedview7"
     pagecolor="#505050"
     bordercolor="#ffffff"
     borderopacity="1"
     inkscape:pageshadow="0"
     inkscape:pageopacity="0"
     inkscape:pagecheckerboard="1"
     inkscape:document-units="mm"
     showgrid="false"
     units="px"
     inkscape:zoom="8.184027"
     inkscape:cx="-14.112857"
     inkscape:cy="5.5596102"
     inkscape:window-width="1920"
     inkscape:window-height="1001"
     inkscape:window-x="-9"
     inkscape:window-y="-9"
     inkscape:window-maximized="1"
     inkscape:current-layer="layer1"
     inkscape:snap-global="false" />
  <defs
     id="defs2" />
  <g
     inkscape:label="Layer 1"
     inkscape:groupmode="layer"
     id="layer1">
    <path
       id="path5615"
       style="fill:#000000;stroke:#ffffff;stroke-width:0.497427;stroke-linecap:round;stroke-linejoin:round"
       d="M 4.2863213,1.1933369 A 0.81658459,0.81658459 0 0 0 3.4702295,2.0104002 0.81658459,0.81658459 0 0 0 3.6363622,2.5029698 L 3.9462829,3.0703479 4.2911786,3.7018474 4.6370462,3.0703479 4.981942,2.4378768 A 0.81658459,0.81658459 0 0 0 5.1033844,2.0104002 0.81658459,0.81658459 0 0 0 4.2863213,1.1933369 Z" />
    <path
       id="path5615-6"
       style="fill:#000000;stroke:#ffffff;stroke-width:0.497427;stroke-linecap:round;stroke-linejoin:round"
       d="M 4.2831363,7.3670803 A 0.81658459,0.81658459 0 0 1 3.4670447,6.550017 0.81658459,0.81658459 0 0 1 3.6331782,6.0574474 L 3.9430981,5.4900693 4.2879938,4.8585698 4.6338614,5.4900693 4.9787572,6.1225404 A 0.81658459,0.81658459 0 0 1 5.1002003,6.550017 0.81658459,0.81658459 0 0 1 4.2831363,7.3670803 Z" />
    <path
       id="path5615-5"
       style="fill:#000000;stroke:#ffffff;stroke-width:0.497427;stroke-linecap:round;stroke-linejoin:round"
       d="M 6.9973008,5.9061579 A 0.81658459,0.81658459 0 0 0 6.7056861,4.7887688 0.81658459,0.81658459 0 0 0 6.1967825,4.682739 L 5.5505837,4.6628535 4.8313807,4.6406784 5.2009577,5.2586016 5.5718644,5.8761781 A 0.81658459,0.81658459 0 0 0 5.8790737,6.197281 0.81658459,0.81658459 0 0 0 6.9973008,5.9061579 Z" />
    <path
       id="path5615-6-3"
       style="fill:#000000;stroke:#ffffff;stroke-width:0.497427;stroke-linecap:round;stroke-linejoin:round"
       d="m 1.5704354,2.7326449 a 0.81658459,0.81658459 0 0 1 1.1177355,-0.290285 0.81658459,0.81658459 0 0 1 0.3407283,0.392593 L 3.3613695,3.3894183 3.7314383,4.006503 3.0117435,3.9851661 2.2917024,3.9624994 A 0.81658459,0.81658459 0 0 1 1.861558,3.8508727 0.81658459,0.81658459 0 0 1 1.5704354,2.7326449 Z" />
    <path
       id="path5615-1"
       style="fill:#000000;stroke:#ffffff;stroke-width:0.497427;stroke-linecap:round;stroke-linejoin:round"
       d="M 1.5949747,5.8209821 A 0.81658459,0.81658459 0 0 0 2.7107618,6.1186685 0.81658459,0.81658459 0 0 0 3.054085,5.7283428 L 3.3902221,5.1760924 3.7643725,4.5614736 3.0445519,4.5780405 2.3243765,4.5959349 A 0.81658459,0.81658459 0 0 0 1.8935021,4.704709 0.81658459,0.81658459 0 0 0 1.5949747,5.8209821 Z" />
    <path
       id="path5615-6-32"
       style="fill:#000000;stroke:#ffffff;stroke-width:0.497427;stroke-linecap:round;stroke-linejoin:round"
       d="M 6.9879508,2.758721 A 0.81658459,0.81658459 0 0 1 6.6889374,3.8741531 0.81658459,0.81658459 0 0 1 6.1793421,3.976808 L 5.5330258,3.992412 4.8136918,4.009821 5.1873556,3.394358 5.5623471,2.7792528 A 0.81658459,0.81658459 0 0 1 5.8716773,2.4601925 0.81658459,0.81658459 0 0 1 6.9879508,2.758721 Z" />
  </g>
</svg>
