<?xml version="1.0" encoding="UTF-8" standalone="no"?>
<svg
   width="64"
   height="64"
   viewBox="0 0 16.933333 16.933334"
   version="1.1"
   id="svg8"
   inkscape:version="1.1 (c68e22c387, 2021-05-23)"
   sodipodi:docname="city.logo.svg"
   xmlns:inkscape="http://www.inkscape.org/namespaces/inkscape"
   xmlns:sodipodi="http://sodipodi.sourceforge.net/DTD/sodipodi-0.dtd"
   xmlns="http://www.w3.org/2000/svg"
   xmlns:svg="http://www.w3.org/2000/svg"
   xmlns:rdf="http://www.w3.org/1999/02/22-rdf-syntax-ns#"
   xmlns:cc="http://creativecommons.org/ns#"
   xmlns:dc="http://purl.org/dc/elements/1.1/">
  <defs
     id="defs2" />
  <sodipodi:namedview
     id="base"
     pagecolor="#ffffff"
     bordercolor="#666666"
     borderopacity="1.0"
     inkscape:pageopacity="0.0"
     inkscape:pageshadow="2"
     inkscape:zoom="11.2"
     inkscape:cx="38.883929"
     inkscape:cy="30.133929"
     inkscape:document-units="mm"
     inkscape:current-layer="layer1"
     inkscape:document-rotation="0"
     showgrid="false"
     units="px"
     inkscape:window-width="1920"
     inkscape:window-height="1001"
     inkscape:window-x="-9"
     inkscape:window-y="-9"
     inkscape:window-maximized="1"
     inkscape:pagecheckerboard="1"
     inkscape:snap-global="false" />
  <metadata
     id="metadata5">
    <rdf:RDF>
      <cc:Work
         rdf:about="">
        <dc:format>image/svg+xml</dc:format>
        <dc:type
           rdf:resource="http://purl.org/dc/dcmitype/StillImage" />
      </cc:Work>
    </rdf:RDF>
  </metadata>
  <g
     inkscape:label="Layer 1"
     inkscape:groupmode="layer"
     id="layer1">
    <path
       id="rect931"
       style="fill:#b3b3b3;stroke:#666666;stroke-width:0.264999;stroke-linecap:round;stroke-linejoin:round"
       d="m 3.9919305,4.4421059 -1.8841227,1.88619 -1.97869054,1.9337319 0.75395914,-0.00206 v 3.6054652 c 0,0.200532 0.1701919,0.362251 0.3818888,0.362251 H 3.1372023 V 8.7260823 L 1.9672479,8.7296992 5.0394117,5.8110143 5.2021926,5.6528842 Z" />
    <path
       id="rect931-2"
       style="fill:#b3b3b3;stroke:#666666;stroke-width:0.264999;stroke-linecap:round;stroke-linejoin:round"
       d="m 13.006145,4.5163725 -1.292427,1.2939779 0.117305,0.113688 2.979147,2.8292848 -1.024744,-0.0031 v 3.5517208 h 2.041736 c 0.211697,0 0.381888,-0.161203 0.381888,-0.361735 V 8.3347439 l 0.659392,0.00156 -1.918229,-1.874821 z" />
    <path
       id="rect931-9"
       style="fill:#b3b3b3;stroke:#666666;stroke-width:0.265;stroke-linecap:round;stroke-linejoin:round"
       d="M 8.4360028,3.6079872 6.0380898,6.0080425 3.5208664,8.468682 4.4796622,8.465782 v 4.588066 c 0,0.255155 0.217094,0.460788 0.4864706,0.460788 h 7.0590492 c 0.269377,0 0.485856,-0.205633 0.485856,-0.460788 V 8.466377 l 0.839485,0.0024 -2.440962,-2.3854913 z" />
  </g>
</svg>
