<?xml version="1.0" encoding="UTF-8" standalone="no"?>
<svg
   width="64"
   height="64"
   viewBox="0 0 16.933333 16.933334"
   version="1.1"
   id="svg8"
   inkscape:version="1.1 (c68e22c387, 2021-05-23)"
   sodipodi:docname="lang.logo.svg"
   xmlns:inkscape="http://www.inkscape.org/namespaces/inkscape"
   xmlns:sodipodi="http://sodipodi.sourceforge.net/DTD/sodipodi-0.dtd"
   xmlns="http://www.w3.org/2000/svg"
   xmlns:svg="http://www.w3.org/2000/svg"
   xmlns:rdf="http://www.w3.org/1999/02/22-rdf-syntax-ns#"
   xmlns:cc="http://creativecommons.org/ns#"
   xmlns:dc="http://purl.org/dc/elements/1.1/">
  <defs
     id="defs2" />
  <sodipodi:namedview
     id="base"
     pagecolor="#ffffff"
     bordercolor="#666666"
     borderopacity="1.0"
     inkscape:pageopacity="0.0"
     inkscape:pageshadow="2"
     inkscape:zoom="11.2"
     inkscape:cx="29.508929"
     inkscape:cy="32.8125"
     inkscape:document-units="mm"
     inkscape:current-layer="layer1"
     inkscape:document-rotation="0"
     showgrid="false"
     units="px"
     inkscape:window-width="1920"
     inkscape:window-height="1001"
     inkscape:window-x="-9"
     inkscape:window-y="-9"
     inkscape:window-maximized="1"
     inkscape:pagecheckerboard="1"
     inkscape:snap-global="false" />
  <metadata
     id="metadata5">
    <rdf:RDF>
      <cc:Work
         rdf:about="">
        <dc:format>image/svg+xml</dc:format>
        <dc:type
           rdf:resource="http://purl.org/dc/dcmitype/StillImage" />
      </cc:Work>
    </rdf:RDF>
  </metadata>
  <g
     inkscape:label="Layer 1"
     inkscape:groupmode="layer"
     id="layer1">
    <g
       aria-label="Aa"
       id="text1061"
       style="font-size:10.5833px;line-height:1.25;letter-spacing:0px;word-spacing:0px;fill:#ffffff;stroke:#000000;stroke-width:0.226793;stroke-linecap:round;stroke-linejoin:round"
       transform="matrix(1.1657549,0,0,1.1675034,-1.4261255,-1.7369336)">
      <path
         d="M 9.0138238,12.024367 H 7.9234545 L 7.168981,9.8798022 H 3.8410294 L 3.0865559,12.024367 H 2.0478629 L 4.8487166,4.3297711 c 0.1948926,-0.5869587 1.068961,-0.6069519 1.3642535,0 z M 6.8537558,9.0013057 5.5050052,5.2237705 4.151087,9.0013057 Z"
         id="path1275"
         style="fill:#ffffff;stroke:#000000;stroke-width:0.226793;stroke-linecap:round;stroke-linejoin:round"
         sodipodi:nodetypes="ccccccccccccc" />
      <path
         d="M 14.589693,12.024367 H 13.623347 V 11.40942 q -0.129191,0.08785 -0.351399,0.248046 -0.21704,0.155029 -0.423745,0.248046 -0.242879,0.118855 -0.558104,0.19637 -0.315225,0.08268 -0.738971,0.08268 -0.780311,0 -1.322912,-0.516763 -0.5426009,-0.516763 -0.5426009,-1.317745 0,-0.6562883 0.2790518,-1.0593632 0.2842191,-0.4082425 0.8061501,-0.6407858 0.527098,-0.2325432 1.266068,-0.3152252 0.738971,-0.082682 1.586462,-0.124023 V 8.0607976 q 0,-0.3307281 -0.118856,-0.5477684 -0.113688,-0.2170404 -0.330728,-0.3410634 -0.206705,-0.1188554 -0.496092,-0.1601964 -0.289387,-0.041341 -0.604612,-0.041341 -0.382405,0 -0.852659,0.1033526 -0.470254,0.098185 -0.971514,0.2893871 H 10.19721 V 6.3761513 q 0.28422,-0.077514 0.821653,-0.1705317 0.537433,-0.093017 1.059363,-0.093017 0.60978,0 1.059364,0.1033525 0.454751,0.098185 0.785479,0.3410634 0.325561,0.2377108 0.496092,0.6149476 0.170532,0.3772367 0.170532,0.9353404 z M 13.623347,10.60327 V 8.996138 q -0.444416,0.025838 -1.049029,0.077514 -0.599444,0.051676 -0.950843,0.1498612 -0.418578,0.1188554 -0.676959,0.3720691 -0.258381,0.2480461 -0.258381,0.6872947 0,0.496092 0.299722,0.749306 0.299722,0.248046 0.91467,0.248046 0.511595,0 0.93534,-0.19637 0.423746,-0.201537 0.78548,-0.480589 z"
         id="path1277"
         style="fill:#ffffff;stroke:#000000;stroke-width:0.226793;stroke-linecap:round;stroke-linejoin:round" />
    </g>
  </g>
</svg>
