<?xml version="1.0" encoding="UTF-8" standalone="no"?>
<svg
   width="64"
   height="64"
   viewBox="0 0 16.933333 16.933334"
   version="1.1"
   id="svg8"
   inkscape:version="1.1 (c68e22c387, 2021-05-23)"
   sodipodi:docname="tech.logo.svg"
   xmlns:inkscape="http://www.inkscape.org/namespaces/inkscape"
   xmlns:sodipodi="http://sodipodi.sourceforge.net/DTD/sodipodi-0.dtd"
   xmlns="http://www.w3.org/2000/svg"
   xmlns:svg="http://www.w3.org/2000/svg"
   xmlns:rdf="http://www.w3.org/1999/02/22-rdf-syntax-ns#"
   xmlns:cc="http://creativecommons.org/ns#"
   xmlns:dc="http://purl.org/dc/elements/1.1/">
  <defs
     id="defs2" />
  <sodipodi:namedview
     id="base"
     pagecolor="#ffffff"
     bordercolor="#666666"
     borderopacity="1.0"
     inkscape:pageopacity="0.0"
     inkscape:pageshadow="2"
     inkscape:zoom="7.3275673"
     inkscape:cx="7.98355"
     inkscape:cy="22.995353"
     inkscape:document-units="mm"
     inkscape:current-layer="layer1"
     inkscape:document-rotation="0"
     showgrid="false"
     units="px"
     inkscape:window-width="1920"
     inkscape:window-height="1001"
     inkscape:window-x="-9"
     inkscape:window-y="-9"
     inkscape:window-maximized="1"
     inkscape:pagecheckerboard="1" />
  <metadata
     id="metadata5">
    <rdf:RDF>
      <cc:Work
         rdf:about="">
        <dc:format>image/svg+xml</dc:format>
        <dc:type
           rdf:resource="http://purl.org/dc/dcmitype/StillImage" />
      </cc:Work>
    </rdf:RDF>
  </metadata>
  <g
     inkscape:label="Layer 1"
     inkscape:groupmode="layer"
     id="layer1">
    <path
       id="rect1004"
       style="fill:none;stroke:#999999;stroke-width:0.999999;stroke-linecap:round;stroke-linejoin:round;stroke-miterlimit:4;stroke-dasharray:none;stroke-dashoffset:0"
       d="m 21.785156,4.9112724 c -1.385,0 -2.5,1.115 -2.5,2.5 v 2.5 c 0,1.3849996 1.115,2.4999996 2.5,2.4999996 h 0.357422 v 10.568359 c 0,0.102217 0.01042,0.201856 0.01563,0.302735 L 3.9277344,53.839844 c -1.5053996,2.694034 0.2959818,6.597572 4.733538,7.052734 L 53.57087,60.714007 c 4.39908,0.242385 7.058711,-4.823844 4.82115,-6.874442 L 39.197266,22.682756 V 12.411272 h 0.535156 c 1.385,0 2.5,-1.115 2.5,-2.4999996 v -2.5 c 0,-1.385 -1.115,-2.5 -2.5,-2.5 z"
       transform="scale(0.26458333)"
       sodipodi:nodetypes="sssscscccccccsssss" />
    <path
       id="path1014"
       style="fill:#2a7fff;fill-opacity:1;stroke:#0044aa;stroke-width:1.00157;stroke-linecap:butt;stroke-linejoin:miter;stroke-miterlimit:4;stroke-dasharray:none;stroke-opacity:1"
       d="M 24.440762,23.385203 5.8925781,54.107422 c -1.2366104,2.217063 1.5048325,5.012522 3.6601563,4.820312 L 51.607422,58.572266 c 2.33758,-0.09885 6.075248,-1.530497 4.910156,-3.929688 L 37.879342,24.222961 c -7.019706,-3.753214 -6.287648,1.546331 -13.43858,-0.837758 z m 7.076816,13.667531 c 2.318278,-4.63e-4 4.197729,1.878988 4.197266,4.197266 4.63e-4,2.318278 -1.878988,4.197729 -4.197266,4.197266 -2.317514,-6.17e-4 -4.195774,-1.879751 -4.195312,-4.197266 -4.62e-4,-2.317515 1.877798,-4.196649 4.195312,-4.197266 z m -12.007812,8.394532 c 1.355838,1.54e-4 2.454924,1.09924 2.455078,2.455078 -1.54e-4,1.355838 -1.09924,2.454924 -2.455078,2.455078 -1.356601,9.25e-4 -2.456878,-1.098476 -2.457032,-2.455078 1.54e-4,-1.356602 1.100431,-2.456003 2.457032,-2.455078 z m 22.755859,2.1875 c 0.0039,-8e-6 0.0078,-8e-6 0.01172,0 1.528427,1.54e-4 2.767424,1.239151 2.767578,2.767578 -1.54e-4,1.528427 -1.239151,2.767424 -2.767578,2.767578 -1.528427,-1.54e-4 -2.767424,-1.239151 -2.767578,-2.767578 1.39e-4,-1.523863 1.23201,-2.760972 2.755858,-2.767578 z m -18.068359,1.605468 c 0.862945,0 1.5625,0.699555 1.5625,1.5625 0,0.862945 -0.699555,1.5625 -1.5625,1.5625 -0.862945,0 -1.5625,-0.699555 -1.5625,-1.5625 0,-0.862945 0.699555,-1.5625 1.5625,-1.5625 z m -11.421875,2.857422 c 0.01237,-1.35e-4 0.02474,-1.35e-4 0.03711,0 0.937566,-4.63e-4 1.697729,0.7597 1.697266,1.697266 -6.16e-4,0.936803 -0.760463,1.695775 -1.697266,1.695312 -0.936803,4.63e-4 -1.69665,-0.758509 -1.697266,-1.695312 -6.67e-4,-0.923253 0.737115,-1.677526 1.660157,-1.697266 z m 35.65039,1.875 c 0.0039,-2e-5 0.0078,-2e-5 0.01172,0 0.641372,3.08e-4 1.160927,0.520738 1.160156,1.16211 -3.08e-4,0.640609 -0.519547,1.159848 -1.160156,1.160156 -0.640609,-3.08e-4 -1.159848,-0.519547 -1.160156,-1.160156 -8.01e-4,-0.636824 0.511647,-1.155374 1.148436,-1.16211 z"
       transform="scale(0.26458333)"
       sodipodi:nodetypes="cccccccccccccccccsccccsssssssccccsscccccc" />
    <circle
       style="fill:#80b3ff;fill-opacity:1;stroke:none;stroke-width:1.05833;stroke-linecap:round;stroke-linejoin:round"
       id="path832"
       cx="8.3589878"
       cy="10.814327"
       r="1.4262635" />
    <circle
       style="fill:#80b3ff;fill-opacity:1;stroke:none;stroke-width:1.05833;stroke-linecap:round;stroke-linejoin:round"
       id="path832-2"
       cx="6.4272122"
       cy="13.468261"
       r="0.74021268" />
    <circle
       style="fill:#80b3ff;fill-opacity:1;stroke:none;stroke-width:1.05833;stroke-linecap:round;stroke-linejoin:round"
       id="path832-2-7"
       cx="11.211514"
       cy="13.377993"
       r="0.97491425" />
    <ellipse
       style="fill:#80b3ff;fill-opacity:1;stroke:none;stroke-width:1.05833;stroke-linecap:round;stroke-linejoin:round"
       id="path832-2-7-6"
       cx="5.199544"
       cy="12.637778"
       rx="0.82999998"
       ry="0.83048248" />
    <circle
       style="fill:#80b3ff;fill-opacity:1;stroke:none;stroke-width:1.05833;stroke-linecap:round;stroke-linejoin:round"
       id="path832-2-7-68"
       cx="12.764156"
       cy="14.605659"
       r="0.4874571" />
    <circle
       style="fill:#80b3ff;fill-opacity:1;stroke:none;stroke-width:1.05833;stroke-linecap:round;stroke-linejoin:round"
       id="path832-2-7-68-5"
       cx="3.3580375"
       cy="14.262633"
       r="0.59578091" />
    <path
       style="fill:none;stroke:#e6e6e6;stroke-width:0.529167;stroke-linecap:round;stroke-linejoin:round;stroke-miterlimit:4;stroke-dasharray:none;stroke-opacity:1"
       d="m 9.3880632,3.5048751 v 1.764478"
       id="path900" />
  </g>
</svg>
