<?xml version="1.0" encoding="UTF-8" standalone="no"?>
<svg
   width="64"
   height="64"
   viewBox="0 0 16.933333 16.933334"
   version="1.1"
   id="svg8"
   inkscape:version="1.1 (c68e22c387, 2021-05-23)"
   sodipodi:docname="vehicle.logo.svg"
   xmlns:inkscape="http://www.inkscape.org/namespaces/inkscape"
   xmlns:sodipodi="http://sodipodi.sourceforge.net/DTD/sodipodi-0.dtd"
   xmlns="http://www.w3.org/2000/svg"
   xmlns:svg="http://www.w3.org/2000/svg"
   xmlns:rdf="http://www.w3.org/1999/02/22-rdf-syntax-ns#"
   xmlns:cc="http://creativecommons.org/ns#"
   xmlns:dc="http://purl.org/dc/elements/1.1/">
  <defs
     id="defs2" />
  <sodipodi:namedview
     id="base"
     pagecolor="#ffffff"
     bordercolor="#666666"
     borderopacity="1.0"
     inkscape:pageopacity="0.0"
     inkscape:pageshadow="2"
     inkscape:zoom="10.362745"
     inkscape:cx="19.927153"
     inkscape:cy="35.077578"
     inkscape:document-units="mm"
     inkscape:current-layer="layer1"
     inkscape:document-rotation="0"
     showgrid="false"
     units="px"
     inkscape:window-width="1920"
     inkscape:window-height="1001"
     inkscape:window-x="-9"
     inkscape:window-y="-9"
     inkscape:window-maximized="1"
     inkscape:pagecheckerboard="1" />
  <metadata
     id="metadata5">
    <rdf:RDF>
      <cc:Work
         rdf:about="">
        <dc:format>image/svg+xml</dc:format>
        <dc:type
           rdf:resource="http://purl.org/dc/dcmitype/StillImage" />
      </cc:Work>
    </rdf:RDF>
  </metadata>
  <g
     inkscape:label="Layer 1"
     inkscape:groupmode="layer"
     id="layer1">
    <path
       style="fill:#a05a2c;stroke:#000000;stroke-width:0.264583px;stroke-linecap:round;stroke-linejoin:round;stroke-opacity:1"
       d="M 2.5532167,8.7320009 H 14.578867 L 14.093756,11.591603 H 3.0383278 Z"
       id="path6795" />
    <path
       style="fill:#999999;stroke:#000000;stroke-width:0.26458333;stroke-linecap:round;stroke-linejoin:round;stroke-miterlimit:4;stroke-dasharray:none;stroke-opacity:1"
       d="M 3.1659887,8.5673249 2.1319359,3.0906751 c 1.2392341,0.7131008 2.3700791,0.3061809 3.510673,0 1.0933357,0.5745291 2.0195082,0.3689635 2.9106669,0 1.0483122,0.5255789 2.0410612,0.4955255 2.9872632,0 1.333486,0.7409353 2.386351,0.4716328 3.383013,0 l -0.995755,5.4638836 z"
       id="path7872"
       sodipodi:nodetypes="cccccccc" />
    <path
       style="fill:none;stroke:#000000;stroke-width:0.26458333;stroke-linecap:round;stroke-linejoin:round;stroke-miterlimit:4;stroke-dasharray:none;stroke-opacity:1"
       d="M 5.6426089,3.0906749 5.9593128,7.8317931"
       id="path8348" />
    <path
       style="fill:none;stroke:#000000;stroke-width:0.26458333;stroke-linecap:round;stroke-linejoin:round;stroke-miterlimit:4;stroke-dasharray:none;stroke-opacity:1"
       d="m 8.5532758,3.0906749 0.00581,4.7230641"
       id="path8350" />
    <path
       style="fill:none;stroke:#000000;stroke-width:0.26458333;stroke-linecap:round;stroke-linejoin:round;stroke-miterlimit:4;stroke-dasharray:none;stroke-opacity:1"
       d="M 11.540539,3.0906749 11.158856,7.904009"
       id="path8352" />
    <path
       style="fill:none;stroke:#000000;stroke-width:0.264583px;stroke-linecap:round;stroke-linejoin:round;stroke-opacity:1"
       d="M 4.3344555,11.587018 V 9.5469199"
       id="path8467" />
    <path
       style="fill:none;stroke:#000000;stroke-width:0.264583px;stroke-linecap:round;stroke-linejoin:round;stroke-opacity:1"
       d="M 6.4467697,8.5900596 V 10.341295"
       id="path8469" />
    <path
       style="fill:none;stroke:#000000;stroke-width:0.264583px;stroke-linecap:round;stroke-linejoin:round;stroke-opacity:1"
       d="M 8.5951919,9.6191358 V 11.514802"
       id="path8471" />
    <path
       style="fill:none;stroke:#000000;stroke-width:0.264583px;stroke-linecap:round;stroke-linejoin:round;stroke-opacity:1"
       d="M 10.653344,8.7886534 V 10.269079"
       id="path8473" />
    <path
       style="fill:none;stroke:#000000;stroke-width:0.264583px;stroke-linecap:round;stroke-linejoin:round;stroke-opacity:1"
       d="M 12.747605,9.6010819 V 11.514802"
       id="path8475" />
    <path
       id="path6885"
       style="fill:#784421;fill-opacity:1;stroke:#502d16;stroke-width:0.132292;stroke-linecap:round;stroke-linejoin:round;stroke-miterlimit:4;stroke-dasharray:none"
       d="m 5.7113839,9.9803989 c -1.1815624,-5e-6 -2.1394092,0.9578411 -2.1394042,2.1394041 -4.9e-6,1.181562 0.9578419,2.139409 2.1394042,2.139404 1.1815624,5e-6 2.1394093,-0.957842 2.1394044,-2.139404 5e-6,-1.181563 -0.9578419,-2.1394092 -2.1394044,-2.1394041 z M 5.487625,10.556074 c 0.016007,-4.5e-4 0.030319,2.18e-4 0.042892,0.0021 L 5.476774,11.587568 4.5558999,11.045483 c 0.094116,-0.22618 0.6916351,-0.482713 0.931726,-0.489376 z m 0.6180502,0.01188 c 0.00214,-1.17e-4 0.00455,3.3e-5 0.00672,0 0.2694265,-0.0043 0.8117374,0.419361 0.8841838,0.602547 l -0.9182924,0.467672 0.00878,-1.068152 c 0.00607,-7.94e-4 0.012158,-0.0017 0.018603,-0.0021 z m -1.7712197,1.019059 0.9278604,0.561723 -1.031271,0.526583 C 4.0723031,12.467757 4.2080859,11.74633 4.3344555,11.587018 Z m 2.8313718,0.08481 c 0.12637,0.159311 0.1605404,0.842439 0.0018,1.050008 L 6.2379669,12.19525 Z m -1.1257812,1.031921 0.9182902,0.467672 c -0.074783,0.189094 -0.6503744,0.63417 -0.9095052,0.60048 z m -0.5632156,-0.02544 0.015445,1.105474 C 5.2911234,13.81356 4.618048,13.537729 4.5176582,13.296471 Z"
       sodipodi:nodetypes="cccccccccccccccccccccccccccccccccc" />
    <path
       id="path6885-8"
       style="fill:#784421;fill-opacity:1;stroke:#502d16;stroke-width:0.132292;stroke-linecap:round;stroke-linejoin:round;stroke-miterlimit:4;stroke-dasharray:none"
       d="m 11.610753,9.9692257 c -1.181563,-5e-6 -2.1394095,0.9578413 -2.1394045,2.1394043 -4.9e-6,1.181562 0.9578415,2.139409 2.1394045,2.139404 1.181562,5e-6 2.139409,-0.957842 2.139404,-2.139404 5e-6,-1.181563 -0.957842,-2.1394094 -2.139404,-2.1394043 z m -0.223759,0.5756753 c 0.01601,-4.5e-4 0.03032,2.18e-4 0.04289,0.0021 l -0.05374,1.029394 -0.920874,-0.542085 c 0.09412,-0.22618 0.691635,-0.482713 0.931726,-0.489376 z m 0.61805,0.01188 c 0.0021,-1.17e-4 0.0046,3.3e-5 0.0067,0 0.269427,-0.0043 0.811738,0.419361 0.884184,0.602547 l -0.918292,0.467672 0.0088,-1.068152 c 0.0061,-7.94e-4 0.01216,-0.0017 0.0186,-0.0021 z m -1.77122,1.019059 0.927861,0.561723 -1.031271,0.526583 c -0.158742,-0.207562 -0.02296,-0.928989 0.10341,-1.088301 z m 2.831372,0.08481 c 0.12637,0.159311 0.160541,0.842439 0.0018,1.050008 l -0.92966,-0.526581 z m -1.125781,1.031921 0.91829,0.467672 c -0.07478,0.189094 -0.650374,0.63417 -0.909505,0.60048 z m -0.563215,-0.02544 0.01544,1.105474 c -0.201152,0.02978 -0.874228,-0.246049 -0.974618,-0.487307 z"
       sodipodi:nodetypes="cccccccccccccccccccccccccccccccccc" />
  </g>
</svg>
